<?xml version="1.0" encoding="utf-8"?>
<!-- Generator: Adobe Illustrator 16.0.0, SVG Export Plug-In . SVG Version: 6.00 Build 0)  -->
<!DOCTYPE svg PUBLIC "-//W3C//DTD SVG 1.1//EN" "http://www.w3.org/Graphics/SVG/1.1/DTD/svg11.dtd">
<svg version="1.1" id="Layer_1" xmlns="http://www.w3.org/2000/svg" xmlns:xlink="http://www.w3.org/1999/xlink" x="0px" y="0px"
	 width="400px" height="400px" viewBox="0 0 400 400" enable-background="new 0 0 400 400" xml:space="preserve">
<g>
	<g>
		<circle fill="#F16522" cx="819.866" cy="233.373" r="190.735"/>
		<path fill="#EC1C24" d="M819.866,430.373c-108.628,0-197.001-88.373-197.001-197s88.373-197,197.001-197
			c108.624,0,196.999,88.373,196.999,197S928.49,430.373,819.866,430.373z M819.866,48.903c-101.717,0-184.47,82.753-184.47,184.47
			s82.753,184.468,184.47,184.468c101.716,0,184.468-82.751,184.468-184.468S921.582,48.903,819.866,48.903z"/>
	</g>
	<g>
		<path fill="#FFF100" d="M819.973,426.614h-0.106c-8.384,0-16.829-0.543-25.104-1.613c-1.373-0.178-2.341-1.436-2.164-2.807
			c0.179-1.376,1.433-2.326,2.808-2.167c8.062,1.046,16.292,1.574,24.461,1.574c1.385,0,2.56,1.121,2.56,2.507
			C822.426,425.495,821.356,426.614,819.973,426.614z M844.861,424.985c-1.241,0-2.318-0.918-2.482-2.179
			c-0.181-1.373,0.788-2.633,2.159-2.811c8.119-1.062,16.242-2.673,24.142-4.786c1.339-0.361,2.714,0.435,3.07,1.771
			c0.356,1.336-0.437,2.712-1.772,3.069c-8.114,2.173-16.455,3.825-24.789,4.914C845.078,424.979,844.968,424.985,844.861,424.985z
			 M770.614,420.194c-0.214,0-0.432-0.027-0.647-0.085c-8.127-2.166-16.186-4.895-23.954-8.108c-1.278-0.53-1.887-1.995-1.356-3.275
			c0.526-1.277,1.993-1.887,3.273-1.355c7.565,3.13,15.414,5.786,23.329,7.898c1.336,0.354,2.132,1.728,1.775,3.066
			C772.735,419.456,771.723,420.194,770.614,420.194z M892.941,412.113c-0.981,0-1.913-0.58-2.315-1.545
			c-0.53-1.279,0.077-2.746,1.354-3.277c7.543-3.13,14.964-6.799,22.053-10.9c1.194-0.699,2.729-0.288,3.424,0.912
			c0.695,1.197,0.284,2.732-0.913,3.425c-7.278,4.214-14.896,7.979-22.641,11.194C893.588,412.053,893.264,412.113,892.941,412.113z
			 M724.588,401.15c-0.426,0-0.857-0.107-1.251-0.335c-7.274-4.202-14.345-8.932-21.016-14.051
			c-1.098-0.843-1.305-2.417-0.463-3.515c0.846-1.095,2.418-1.302,3.516-0.461c6.497,4.988,13.385,9.593,20.469,13.685
			c1.199,0.692,1.609,2.228,0.917,3.425C726.296,400.702,725.454,401.15,724.588,401.15z M936.013,387.19
			c-0.752,0-1.495-0.338-1.989-0.979c-0.845-1.097-0.638-2.67,0.458-3.515c6.483-4.98,12.703-10.444,18.497-16.24
			c0.979-0.979,2.565-0.979,3.545,0s0.979,2.564,0,3.544c-5.945,5.948-12.333,11.558-18.986,16.67
			C937.083,387.021,936.547,387.19,936.013,387.19z M685.086,370.842c-0.641,0-1.281-0.246-1.771-0.732
			c-5.944-5.938-11.557-12.323-16.681-18.978c-0.845-1.097-0.641-2.671,0.458-3.516c1.091-0.846,2.668-0.644,3.514,0.455
			c4.992,6.484,10.459,12.705,16.25,18.489c0.98,0.979,0.98,2.565,0.003,3.546C686.37,370.596,685.728,370.842,685.086,370.842z
			 M971.2,351.986c-0.531,0-1.069-0.17-1.525-0.521c-1.096-0.842-1.305-2.415-0.459-3.514c4.995-6.505,9.604-13.391,13.698-20.463
			c0.69-1.197,2.217-1.614,3.424-0.913c1.197,0.693,1.608,2.224,0.913,3.424c-4.2,7.261-8.931,14.329-14.061,21.007
			C972.695,351.648,971.955,351.986,971.2,351.986z M654.737,331.398c-0.864,0-1.706-0.448-2.171-1.252
			c-4.212-7.266-7.981-14.881-11.206-22.631c-0.531-1.278,0.074-2.746,1.352-3.276c1.283-0.532,2.746,0.075,3.277,1.352
			c3.14,7.55,6.813,14.967,10.914,22.045c0.694,1.196,0.287,2.729-0.912,3.424C655.597,331.29,655.163,331.398,654.737,331.398z
			 M996.136,308.875c-0.321,0-0.646-0.063-0.96-0.192c-1.279-0.531-1.887-1.996-1.355-3.275c3.136-7.564,5.797-15.412,7.913-23.325
			c0.355-1.336,1.752-2.12,3.066-1.775c1.338,0.358,2.131,1.731,1.774,3.07c-2.17,8.125-4.906,16.185-8.123,23.949
			C998.052,308.293,997.116,308.875,996.136,308.875z M635.634,285.447c-1.106,0-2.118-0.738-2.419-1.857
			c-2.174-8.099-3.833-16.438-4.932-24.788c-0.182-1.372,0.784-2.63,2.157-2.811c1.348-0.177,2.63,0.782,2.811,2.158
			c1.07,8.131,2.688,16.253,4.805,24.14c0.358,1.338-0.435,2.713-1.771,3.071C636.066,285.419,635.848,285.447,635.634,285.447z
			 M1008.994,260.769c-0.107,0-0.216-0.006-0.325-0.021c-1.374-0.178-2.34-1.438-2.161-2.809c1.054-8.095,1.586-16.358,1.586-24.565
			l-0.003-0.433c0-1.383,1.122-2.505,2.507-2.505c1.386,0,2.507,1.122,2.507,2.505l0.002,0.39c0,8.465-0.548,16.948-1.631,25.255
			C1011.313,259.847,1010.235,260.769,1008.994,260.769z M629.131,235.986c-1.384,0-2.507-1.013-2.507-2.397v-0.216
			c0-8.352,0.539-16.762,1.603-24.995c0.176-1.374,1.432-2.349,2.806-2.165c1.373,0.178,2.343,1.434,2.165,2.807
			c-1.035,8.021-1.561,16.215-1.561,24.354C631.637,234.757,630.515,235.986,629.131,235.986z M1008.933,210.563
			c-1.237,0-2.315-0.916-2.482-2.177c-1.078-8.135-2.704-16.254-4.83-24.135c-0.359-1.336,0.431-2.711,1.767-3.072
			c1.336-0.353,2.712,0.431,3.074,1.768c2.181,8.091,3.851,16.429,4.959,24.781c0.185,1.372-0.782,2.63-2.152,2.813
			C1009.152,210.555,1009.044,210.563,1008.933,210.563z M635.523,186.734c-0.213,0-0.43-0.028-0.645-0.086
			c-1.338-0.356-2.135-1.729-1.778-3.066c2.16-8.124,4.885-16.185,8.096-23.959c0.529-1.278,1.994-1.884,3.274-1.359
			c1.278,0.528,1.888,1.994,1.359,3.273c-3.129,7.571-5.781,15.422-7.886,23.333C637.646,185.992,636.632,186.734,635.523,186.734z
			 M995.975,162.503c-0.982,0-1.912-0.58-2.313-1.544c-3.146-7.541-6.827-14.953-10.938-22.031
			c-0.699-1.196-0.294-2.729,0.903-3.426c1.195-0.697,2.729-0.292,3.428,0.908c4.225,7.267,8.003,14.877,11.23,22.621
			c0.534,1.277-0.07,2.744-1.348,3.276C996.622,162.44,996.297,162.503,995.975,162.503z M654.537,140.696
			c-0.425,0-0.855-0.107-1.25-0.335c-1.199-0.691-1.61-2.225-0.918-3.423c4.193-7.271,8.915-14.344,14.035-21.023
			c0.844-1.098,2.417-1.304,3.514-0.464c1.1,0.842,1.308,2.415,0.464,3.514c-4.987,6.506-9.587,13.396-13.672,20.478
			C656.247,140.247,655.403,140.696,654.537,140.696z M970.978,119.48c-0.751,0-1.493-0.335-1.987-0.977
			c-4.99-6.472-10.464-12.686-16.269-18.47c-0.979-0.977-0.982-2.564-0.005-3.544c0.977-0.978,2.563-0.985,3.544-0.007
			c5.958,5.936,11.576,12.316,16.7,18.961c0.844,1.097,0.64,2.671-0.456,3.515C972.05,119.311,971.511,119.48,970.978,119.48z
			 M684.827,101.178c-0.641,0-1.281-0.244-1.77-0.732c-0.98-0.978-0.983-2.565-0.005-3.544c5.939-5.955,12.321-11.57,18.971-16.691
			c1.095-0.843,2.669-0.642,3.515,0.456c0.845,1.097,0.641,2.67-0.455,3.516c-6.479,4.988-12.695,10.458-18.481,16.259
			C686.111,100.932,685.47,101.178,684.827,101.178z M935.709,84.344c-0.531,0-1.066-0.169-1.522-0.517
			c-6.499-4.979-13.392-9.576-20.484-13.661c-1.197-0.691-1.611-2.224-0.918-3.423c0.689-1.198,2.22-1.61,3.42-0.922
			c7.28,4.196,14.356,8.913,21.032,14.026c1.099,0.842,1.307,2.415,0.466,3.514C937.207,84.006,936.463,84.344,935.709,84.344z
			 M724.257,70.803c-0.863,0-1.704-0.447-2.17-1.248c-0.695-1.197-0.287-2.73,0.91-3.426c7.267-4.22,14.88-7.993,22.627-11.221
			c1.278-0.532,2.745,0.073,3.277,1.352c0.53,1.277-0.073,2.745-1.351,3.277c-7.545,3.142-14.96,6.817-22.037,10.926
			C725.117,70.693,724.685,70.803,724.257,70.803z M892.561,59.488c-0.321,0-0.644-0.062-0.957-0.191
			c-7.566-3.123-15.421-5.771-23.337-7.871c-1.337-0.356-2.135-1.728-1.778-3.065c0.354-1.336,1.732-2.131,3.066-1.78
			c8.128,2.157,16.189,4.877,23.962,8.083c1.278,0.528,1.887,1.994,1.36,3.273C894.479,58.902,893.544,59.488,892.561,59.488z
			 M770.194,51.676c-1.106,0-2.119-0.735-2.42-1.854c-0.359-1.336,0.434-2.711,1.77-3.071c8.101-2.18,16.438-3.842,24.784-4.945
			c1.372-0.172,2.633,0.783,2.813,2.157c0.183,1.37-0.783,2.63-2.156,2.812c-8.128,1.074-16.249,2.694-24.139,4.817
			C770.629,51.649,770.409,51.676,770.194,51.676z M844.435,46.712c-0.104,0-0.213-0.006-0.322-0.021
			c-7.984-1.027-16.142-1.547-24.246-1.547h-0.325c-1.383,0-2.506-1.122-2.506-2.506c0-1.385,1.123-2.507,2.506-2.507h0.325
			c8.318,0,16.69,0.535,24.888,1.588c1.373,0.177,2.342,1.432,2.165,2.806C846.756,45.79,845.679,46.712,844.435,46.712z"/>
	</g>
	<g>
		<path fill="#FFFFFF" d="M704.007,119.67l-0.213,0.265l0.266,0.213l-2.856,3.561l25.597,20.535l-5.083,1.249l-9.034-7.247
			l-2.086,15.88l-5.277,0.569l4.002-15.915l-1.603,1.025l-5.18,2.354l-2.845,1.063l-0.219,1.144l-0.33,1.499l-0.285,1.443
			c-0.194,0.608-0.282,1.007-0.264,1.199l-0.327,1.497l-1.054,3.382c-0.135,0.243-0.042,0.525,0.284,0.845l-5.862,0.229
			c0.484-0.603,0.786-1.087,0.907-1.457l0.396-0.817l0.683-1.722l0.513-1.511l0.822-2.658l0.525-1.85l-0.469,0.147l-2.617,0.433
			c-0.54,0.092-1.66,0.038-3.362-0.165c-0.915-0.092-1.673-0.381-2.275-0.864c-0.602-0.482-1.172-1.114-1.71-1.896
			c-0.305-0.71-0.53-1.444-0.678-2.204l0.407-2.468c0.355-0.878,0.86-1.726,1.515-2.54c0.682-0.851,1.523-1.572,2.522-2.168
			c1.615-0.856,3.56-1.073,5.829-0.65c0.989,0.214,1.91,0.659,2.756,1.338c0.637,0.511,1.111,1.038,1.428,1.582
			c0.854,1.034,1.315,2.483,1.39,4.345l-0.112,1.221l2.232-0.828l2.765-1.276l1.329-0.681l1.224-0.764
			c0.63-0.426,1.042-0.649,1.231-0.67l0.767-0.521l-11.052-8.867l-2.771,3.454l-3.839-1.42l9.251-11.53L704.007,119.67z
			 M694.125,135.407l-1.067-0.595c-0.237-0.131-0.651-0.113-1.242,0.052l-1.093,0.346l-1.059,0.812
			c-0.71,0.886-1.03,1.793-0.96,2.722l0.23,1.671l0.945,1.107c0.886,0.711,2.08,1,3.584,0.867l1.682-0.137l0.648-0.264l0.167-0.741
			l-0.088-1.817c-0.036-0.668-0.214-1.48-0.533-2.436L694.125,135.407z"/>
		<path fill="#FFFFFF" d="M715.736,110.125l-0.254,0.228l0.273,0.304l-3.398,3.048l21.909,24.432l-5.282,0.538l-19.821-22.104
			l-2.588,2.319l-2.592-2.891l3.449-3.093l-1.775-1.063c-0.654-0.387-1.965-0.829-3.932-1.322c-3.869-0.982-6.65-0.718-8.341,0.801
			c-0.474,0.423-0.82,0.887-1.04,1.39c-0.21,0.92-0.139,1.953,0.216,3.099l1.242,1.997l1.335,1.182l1.497,0.854l1.574,0.327
			c0.51,0.092,1.316,0.04,2.42-0.158l-2.175,1.858c-0.327,0.112-0.795,0.135-1.403,0.068l-2.242-0.458
			c-1.018-0.186-2.013-0.529-2.981-1.032c-0.97-0.503-1.729-1.058-2.274-1.666c-0.637-0.711-1.108-1.476-1.418-2.297
			c-0.198-0.493-0.362-1.322-0.492-2.487c0.013-0.803,0.22-1.643,0.62-2.523c0.402-0.877,0.94-1.62,1.617-2.227
			c2.434-2.184,6.306-2.559,11.614-1.127l5.294,1.719c0.944,0.307,1.785,0.766,2.521,1.383l4.108-3.685L715.736,110.125z"/>
		<path fill="#FFFFFF" d="M764.141,81.968l-0.309,0.143l0.144,0.309l-8.532,3.947l1.462,2.023l1.335,2.235
			c1.905,4.119,2.068,8.745,0.49,13.874c0.81,0.777,1.834,1.53,3.071,2.257l3.773,2.154l4.121,1.768
			c0.742,0.309,2.204,0.656,4.387,1.047l-2.262,3.223l-3.277-1.568l-2.82-1.553l-3.297-1.934l-2.516-1.544l-4.851-3.021
			l-2.479-1.787l-1.696-1.396l-1.084-1.529c-0.439-0.949-0.164-1.653,0.825-2.11l4.944-2.289l-3.775-8.162l-11.253,5.208
			l-1.629-3.524l23.739-10.984L764.141,81.968z"/>
		<path fill="#FFFFFF" d="M776.973,78.379l-0.324,0.104l0.102,0.323l-4.995,1.597l9.988,31.26l-5.039-1.67l-9.037-28.283
			l-3.957,1.265l-1.183-3.699l13.366-4.271L776.973,78.379z"/>
		<path fill="#FFFFFF" d="M807.695,72.585l-0.335,0.057l0.056,0.337l-4.568,0.764l5.414,32.366l-4.556-2.467l-2.281-13.639
			l-10.348,1.731l0.45,2.688c0.173,1.03-0.156,1.685-0.984,1.961c-1.255,0.209-2.88-0.422-4.876-1.899
			c-0.263-0.188-0.615-0.513-1.062-0.972c-0.445-0.459-0.81-0.852-1.094-1.175c-0.509-0.564-0.809-1.117-0.899-1.659
			c-0.143-0.858,0.217-1.453,1.083-1.783l2.487-0.416l-1.944-11.623l-6.048,1.012l-0.641-3.829l29.563-4.946L807.695,72.585z
			 M801.153,86.319l-0.336,0.057l-2.001-11.959l-10.347,1.731l1.944,11.622l10.684-1.787L801.153,86.319z"/>
		<path fill="#FFFFFF" d="M874.091,81.02l-0.332-0.076l-0.077,0.332L868.57,80.1l-7.355,31.981l-3.374-3.858l4.451-19.362
			l-8.231-1.894l0.414,0.935l0.577,1.74l0.107,1.981l-0.231,1.904c-0.406,1.771-1.273,3.297-2.591,4.577
			c-0.713,0.674-1.518,1.118-2.402,1.334c-0.949,0.062-1.83,0.046-2.646-0.049c-1.638-0.378-3.018-1.37-4.139-2.979
			c-1.332-1.706-2.311-3.934-2.936-6.688l-0.759-3.39l-0.59-5.028l3.438-0.958c-0.206,0.886-0.333,1.696-0.388,2.429
			c-0.05,0.733-0.027,1.391,0.073,1.974l0.201,2.773c0.137,2.034,0.732,3.801,1.785,5.302c0.917,1.283,2.105,2.093,3.565,2.428
			l1.043,0.032l1.116-0.301c0.739-0.384,1.388-1.276,1.943-2.678c0.283-1.232,0.333-2.402,0.145-3.511
			c-0.189-1.111-0.615-2.343-1.28-3.701l-0.887-1.315c-0.159-0.325-0.785-1.145-1.882-2.457l15.486,3.488l1.297-5.643l-24.764-5.695
			l0.87-3.784l34.256,7.879L874.091,81.02z"/>
		<path fill="#FFFFFF" d="M887.831,87.459l-0.314-0.127l-0.128,0.315l-4.861-1.973l-12.342,30.406l-2.801-4.509l11.165-27.512
			l-3.847-1.563l1.459-3.599l13.001,5.278L887.831,87.459z"/>
		<path fill="#FFFFFF" d="M915.36,102.795l-0.294-0.171l-0.17,0.293l-4.532-2.645l-16.552,28.338l-1.972-4.86l8.82-15.103
			l-8.292-4.846l-3.333,5.707c-0.436,0.745-1.005,0.911-1.715,0.499l-0.469-0.275l-0.265-0.629l-0.563-3.896l-0.292-2.469
			l-0.052-1.535l-0.208-3.29l0.396-0.543c0.328-0.563,0.913-0.843,1.753-0.839l0.353,0.206l14.646,8.556l4.156-7.117L889.07,87.836
			l1.96-3.354l26.116,15.254L915.36,102.795z"/>
		<path fill="#FFFFFF" d="M944.287,128.905l-0.249-0.233l-0.232,0.25l-10.769-10.026l-6.775,7.279l1.867,0.438
			c0.751,0.142,1.445,0.384,2.078,0.723l1.566,0.995c0.856,0.797,1.415,1.657,1.669,2.575c0.795,1.858,0.626,4.025-0.514,6.505
			c-0.268,0.49-0.558,0.966-0.866,1.427c-0.304,0.461-0.674,0.924-1.106,1.389c-1.33,1.43-2.689,2.49-4.077,3.182l-1.998,0.844
			c-2.721,1.126-4.943,1.415-6.666,0.865l-0.029-4.867c0.464,0.434,1.018,0.669,1.663,0.711l3.21-0.548
			c0.54-0.116,1.162-0.299,1.859-0.549c0.698-0.25,1.442-0.565,2.232-0.947c1.296-0.658,2.313-1.385,3.055-2.184l0.731-1.085
			c0.416-0.915,0.489-1.607,0.216-2.08c-0.274-0.472-0.664-1.005-1.166-1.597c-0.332-0.31-0.86-0.645-1.579-1.005
			c-0.718-0.362-1.689-0.585-2.909-0.672l-1.303-0.101l-1.545-0.141l-11.974,12.862l-1.019-5.203l7.519-8.079l-1.017-0.204
			l-1.073-0.348l-2.639-0.965l-1.581-1.101c-0.665-0.619-1.292-1.577-1.884-2.876c-0.769-1.839-0.766-4.047,0.021-6.622
			c0.541-1.115,1.172-2.058,1.887-2.827c1.086-1.167,2.403-1.88,3.94-2.132l1.665-0.089c1.729,0.273,3.166,0.761,4.314,1.463
			c0.36,0.214,0.805,0.567,1.339,1.063l0.797,0.742l0.855,1.08l-1.523,4.535l-0.996-0.929l-0.609-0.846l-0.547-0.511
			c-0.833-0.773-1.511-1.312-2.033-1.614c-0.535-0.495-1.553-0.833-3.061-1.015c-0.294-0.083-0.7-0.045-1.222,0.114
			c-0.681,0.331-1.243,0.735-1.691,1.218c-1.092,1.17-1.461,2.333-1.111,3.493l0.606,1.145l1.2,1.114l1.723,1.047
			c0.524,0.303,1.68,0.695,3.466,1.178l0.724,0.119l1.7,0.275l9.467-10.172l-11.966-11.139l2.646-2.842l26.127,24.32
			L944.287,128.905z"/>
		<path fill="#FFFFFF" d="M952.847,141.096l-0.21-0.27l-0.323,0.251l-2.798-3.604l-25.921,20.122l-0.164-5.307l23.453-18.205
			l-2.128-2.745l3.066-2.381l2.842,3.66l1.184-1.696c0.431-0.625,0.964-1.9,1.597-3.828c1.255-3.79,1.188-6.583-0.207-8.377
			c-0.389-0.502-0.826-0.88-1.311-1.136c-0.907-0.275-1.94-0.276-3.109-0.003l-2.08,1.097l-1.272,1.247l-0.959,1.434l-0.436,1.547
			c-0.128,0.501-0.133,1.311-0.015,2.425l-1.702-2.302c-0.085-0.334-0.074-0.802,0.031-1.403l0.618-2.204
			c0.256-1.004,0.671-1.97,1.238-2.902c0.573-0.931,1.18-1.647,1.825-2.149c0.754-0.585,1.552-1.001,2.392-1.252
			c0.506-0.162,1.344-0.268,2.518-0.314c0.798,0.068,1.62,0.335,2.472,0.797c0.848,0.464,1.549,1.054,2.107,1.771
			c2.003,2.584,2.104,6.473,0.3,11.666l-2.091,5.158c-0.371,0.922-0.891,1.727-1.556,2.417l3.383,4.358L952.847,141.096z"/>
	</g>
	<g>
		<defs>
			<circle id="SVGID_1_" cx="819.866" cy="236.747" r="119.568"/>
		</defs>
		<clipPath id="SVGID_2_">
			<use xlink:href="#SVGID_1_"  overflow="visible"/>
		</clipPath>
		<g clip-path="url(#SVGID_2_)">
			<rect x="662.199" y="104.836" fill-rule="evenodd" clip-rule="evenodd" fill="#EC1C24" width="321.923" height="326.37"/>
		</g>
		<g clip-path="url(#SVGID_2_)">
			<path fill-rule="evenodd" clip-rule="evenodd" fill="#FFFAD7" d="M895.098,237.49c-0.9-1.257-0.792-2.209-0.188-3.63
				c1.621-3.813,0.635-5.536-3.554-6.448c-1.609-0.351-2.397-0.798-1.976-2.605c0.992-4.276-0.608-7.611-4.06-10.102
				c-1.346-0.977-1.522-2.285-1.848-3.77c-1.246-5.649-5.714-9.55-8.211-14.538c-0.105-0.215-0.437-0.297-0.652-0.451
				c-9.342-6.808-15.109-15.558-14.953-27.527c0.019-1.604-0.02-3.21-0.056-4.811c-0.101-4.241,1.911-6.335,6.223-6.466
				c2.042-0.064,3.948,0.633,5.88,1.162c2.702,0.744,5.201,2.172,8.047,2.416c3.073,0.262,5.799-0.42,6.633-3.771
				c0.839-3.36,1.292-6.828,1.254-10.318c-0.025-2.384-1.098-3.711-3.699-3.627c-4.958,0.161-9.528-1.423-13.776-3.757
				c-3.405-1.864-6.868-2.746-10.74-2.578c-4.051,0.179-4.592,0.446-4.667,4.57c-0.132,6.951,0.182,13.915-0.101,20.859
				c-0.313,7.682-0.187,15.511-5.003,22.259c-3.079,4.314-5.385,9.263-10.615,11.621c-1.652,0.745-2.758,2.127-3.229,3.897
				c-1.31,4.968-6.702,8.038-6.405,13.786c0.029,0.529-0.837,0.993-1.375,1.393c-2.957,2.206-4.171,5.201-3.666,8.787
				c0.32,2.299-0.184,3.347-2.74,3.688c-3.31,0.442-4.789,2.9-3.16,5.75c1.457,2.557,0.282,3.91-0.92,5.683
				c-2.149,3.168-4.186,6.396-6.066,9.713c-2.134-3.839-4.466-7.575-7.055-11.186c-0.9-1.257-0.795-2.209-0.19-3.63
				c1.624-3.813,0.637-5.536-3.552-6.448c-1.612-0.351-2.396-0.798-1.978-2.605c0.992-4.276-0.608-7.611-4.059-10.102
				c-1.347-0.977-1.521-2.285-1.848-3.77c-1.245-5.649-5.713-9.55-8.207-14.538c-0.107-0.215-0.441-0.297-0.655-0.451
				c-9.342-6.808-15.109-15.558-14.955-27.527c0.021-1.604-0.018-3.21-0.056-4.811c-0.099-4.241,1.91-6.335,6.227-6.466
				c2.041-0.064,3.945,0.633,5.877,1.162c2.702,0.744,5.199,2.172,8.05,2.416c3.073,0.262,5.795-0.42,6.631-3.771
				c0.84-3.36,1.292-6.828,1.252-10.318c-0.027-2.384-1.097-3.711-3.701-3.627c-4.958,0.161-9.526-1.423-13.777-3.757
				c-3.401-1.864-6.861-2.746-10.735-2.578c-4.049,0.179-4.592,0.446-4.668,4.57c-0.13,6.951,0.18,13.915-0.102,20.859
				c-0.312,7.682-0.184,15.511-4.999,22.259c-3.08,4.314-5.389,9.263-10.616,11.621c-1.655,0.745-2.763,2.127-3.231,3.897
				c-1.312,4.968-6.7,8.038-6.402,13.786c0.024,0.529-0.842,0.993-1.376,1.393c-2.96,2.206-4.169,5.201-3.669,8.787
				c0.32,2.299-0.185,3.347-2.74,3.688c-3.307,0.442-4.788,2.9-3.161,5.75c1.459,2.557,0.287,3.91-0.918,5.683
				c-4.362,6.428-8.267,13.109-11.32,20.279c-2.437,5.717-4.772,11.484-7.353,17.957c-0.508,0.998-1.889,6.038-1.871,7.043v233.633
				c38.92,0,77.843,0,116.764,0c30.227,0,60.451,0,90.677,0c0,0,16.354-170.955,10.425-197.093
				c-2.988-24.581-10.425-45.945-10.425-45.945C908.968,261.678,903.31,248.946,895.098,237.49z"/>
		</g>
		<g clip-path="url(#SVGID_2_)">
			<g>
				<path fill-rule="evenodd" clip-rule="evenodd" fill="#FFCA07" d="M798.95,254.145l-0.626-36.954l6.055,36.302
					C802.548,253.616,800.731,253.837,798.95,254.145z"/>
			</g>
			<g>
				<path fill-rule="evenodd" clip-rule="evenodd" fill="#FFCA07" d="M788.327,257.175l-8.296-36.011l13.471,34.234
					C791.738,255.899,790.009,256.494,788.327,257.175z"/>
			</g>
			<g>
				<path fill-rule="evenodd" clip-rule="evenodd" fill="#FFCA07" d="M778.57,262.354l-15.606-33.514l20.294,30.693
					C781.646,260.396,780.079,261.334,778.57,262.354z"/>
			</g>
			<g>
				<path fill-rule="evenodd" clip-rule="evenodd" fill="#FFCA07" d="M770.096,269.437l-22.231-29.539l26.238,25.814
					C772.704,266.879,771.368,268.131,770.096,269.437z"/>
			</g>
			<g>
				<path fill-rule="evenodd" clip-rule="evenodd" fill="#FFCA07" d="M763.272,278.124l-27.876-24.264l31.024,19.785
					C765.301,275.083,764.247,276.572,763.272,278.124z"/>
			</g>
			<g>
				<path fill-rule="evenodd" clip-rule="evenodd" fill="#FFCA07" d="M758.414,288.045l-32.31-17.941l34.454,12.907
					C759.763,284.64,759.043,286.321,758.414,288.045z"/>
			</g>
			<g>
				<path fill-rule="evenodd" clip-rule="evenodd" fill="#FFCA07" d="M854.722,281.469l34.958-12.016l-32.637,16.976
					C856.356,284.733,855.583,283.078,854.722,281.469z"/>
			</g>
			<g>
				<path fill-rule="evenodd" clip-rule="evenodd" fill="#FFCA07" d="M848.56,272.305l31.704-19.018l-28.415,23.394
					C850.83,275.165,849.734,273.704,848.56,272.305z"/>
			</g>
			<g>
				<path fill-rule="evenodd" clip-rule="evenodd" fill="#FFCA07" d="M840.629,264.622l27.055-25.193l-22.928,28.787
					C843.443,266.951,842.073,265.748,840.629,264.622z"/>
			</g>
			<g>
				<path fill-rule="evenodd" clip-rule="evenodd" fill="#FFCA07" d="M831.281,258.742l21.213-30.259L836.063,261.4
					C834.525,260.435,832.927,259.548,831.281,258.742z"/>
			</g>
			<g>
				<path fill-rule="evenodd" clip-rule="evenodd" fill="#FFCA07" d="M820.901,254.953l14.465-34.014l-9.231,35.616
					C824.432,255.936,822.684,255.398,820.901,254.953z"/>
			</g>
			<g>
				<path fill-rule="evenodd" clip-rule="evenodd" fill="#FFCA07" d="M817.043,217.12l-1.624,36.765
					c-0.883-0.122-1.768-0.228-2.665-0.305c-0.936-0.083-1.861-0.141-2.786-0.181L817.043,217.12z"/>
			</g>
			<g>
				<path fill-rule="evenodd" clip-rule="evenodd" fill="#FFCA07" d="M808.521,261.908c21.663,0,39.698,15.553,43.559,36.103
					c-13.917,8.186-26.524,18.361-37.436,30.13c-7.041-7.412-15.169-14.016-24.329-19.566c-8.093-4.901-16.544-8.702-25.173-11.459
					C769.342,277.008,787.168,261.908,808.521,261.908z"/>
			</g>
			<g>
				<g>
					<path fill-rule="evenodd" clip-rule="evenodd" fill="#FFCA07" d="M935.728,275.279c21.817,0,42.648,4.238,61.712,11.923v27.47
						c-20.23-7.325-45.282-12.147-77.031-12.147c-56.243,0-105.913,28.12-135.738,71.06
						C810.337,315.682,868.315,275.279,935.728,275.279z"/>
				</g>
				<g>
					<path fill-rule="evenodd" clip-rule="evenodd" fill="#FFCA07" d="M650.235,322.43c37.435-34.356,94.431-41.512,140.079-13.855
						c9.16,5.551,17.288,12.154,24.329,19.566c-1.663,1.787-3.287,3.607-4.866,5.471c-2.743-2.01-5.53-4.018-8.55-5.704
						c-68.336-38.075-119.495-13.063-150.992,14.585V322.43z"/>
				</g>
			</g>
		</g>
	</g>
	<g>
		<path fill="#FFF100" d="M807.511,354.712c-0.085,0-0.171-0.006-0.258-0.013c-8.473-0.87-16.865-2.636-24.945-5.248
			c-1.316-0.427-2.039-1.84-1.614-3.156c0.428-1.313,1.837-2.041,3.156-1.611c7.747,2.503,15.792,4.194,23.915,5.028
			c1.376,0.143,2.378,1.373,2.237,2.751C809.869,353.752,808.779,354.712,807.511,354.712z M832.465,354.686
			c-1.268,0-2.355-0.956-2.49-2.245c-0.145-1.378,0.855-2.608,2.231-2.752c8.128-0.853,16.167-2.563,23.901-5.082
			c1.31-0.427,2.731,0.292,3.159,1.607c0.429,1.317-0.291,2.732-1.607,3.16c-8.066,2.626-16.454,4.41-24.931,5.296
			C832.639,354.68,832.551,354.686,832.465,354.686z M760.262,339.435c-0.426,0-0.856-0.107-1.25-0.335
			c-7.354-4.241-14.295-9.277-20.63-14.968c-1.031-0.924-1.116-2.508-0.191-3.537c0.929-1.028,2.512-1.116,3.54-0.19
			c6.076,5.456,12.733,10.285,19.784,14.354c1.199,0.693,1.61,2.225,0.92,3.424C761.971,338.983,761.127,339.435,760.262,339.435z
			 M879.674,339.316c-0.863,0-1.705-0.447-2.171-1.249c-0.694-1.197-0.286-2.729,0.914-3.425c7.043-4.082,13.688-8.923,19.75-14.389
			c1.025-0.931,2.61-0.85,3.54,0.183c0.928,1.026,0.846,2.613-0.182,3.538c-6.322,5.7-13.252,10.748-20.598,15.005
			C880.533,339.209,880.101,339.316,879.674,339.316z M723.322,306.253c-0.773,0-1.536-0.356-2.026-1.027
			c-5.018-6.874-9.322-14.287-12.796-22.036c-0.565-1.264-0.001-2.745,1.262-3.312c1.262-0.571,2.745-0.003,3.313,1.262
			c3.33,7.429,7.458,14.54,12.27,21.13c0.816,1.118,0.571,2.685-0.546,3.501C724.352,306.097,723.835,306.253,723.322,306.253z
			 M916.551,306.066c-0.512,0-1.026-0.155-1.472-0.479c-1.12-0.814-1.368-2.383-0.553-3.501c4.801-6.605,8.917-13.726,12.23-21.16
			c0.562-1.266,2.038-1.83,3.308-1.271c1.265,0.563,1.834,2.045,1.269,3.309c-3.453,7.757-7.746,15.182-12.754,22.069
			C918.09,305.71,917.326,306.066,916.551,306.066z M703.032,260.943c-1.158,0-2.196-0.807-2.448-1.982
			c-1.767-8.276-2.671-16.8-2.688-25.34c-0.003-1.384,1.117-2.509,2.501-2.511c0.001,0,0.004,0,0.005,0
			c1.382,0,2.505,1.119,2.507,2.502c0.016,8.19,0.883,16.367,2.578,24.3c0.289,1.354-0.574,2.688-1.928,2.976
			C703.383,260.926,703.206,260.943,703.032,260.943z M936.752,260.705c-0.171,0-0.345-0.019-0.522-0.055
			c-1.354-0.286-2.218-1.616-1.933-2.97c1.677-7.943,2.528-16.122,2.528-24.308v-0.492c0-1.384,1.12-2.506,2.507-2.506
			c1.385,0,2.506,1.122,2.506,2.506v0.492c0,8.533-0.887,17.061-2.636,25.342C938.952,259.896,937.912,260.705,936.752,260.705z
			 M702.936,211.295c-0.17,0-0.342-0.018-0.515-0.053c-1.354-0.284-2.224-1.611-1.941-2.967c1.742-8.324,4.371-16.487,7.819-24.265
			c0.561-1.267,2.037-1.84,3.306-1.275c1.266,0.56,1.837,2.04,1.275,3.307c-3.303,7.454-5.825,15.28-7.493,23.259
			C705.14,210.483,704.097,211.295,702.936,211.295z M936.642,210.574c-1.155,0-2.194-0.803-2.447-1.979
			c-1.714-7.961-4.283-15.771-7.636-23.209c-0.568-1.262-0.006-2.745,1.255-3.314c1.267-0.573,2.747-0.007,3.316,1.256
			c3.495,7.76,6.176,15.906,7.964,24.213c0.292,1.353-0.57,2.687-1.921,2.978C936.994,210.555,936.814,210.574,936.642,210.574z
			 M723.037,165.892c-0.509,0-1.023-0.154-1.467-0.477c-1.122-0.813-1.372-2.379-0.562-3.5c4.984-6.882,10.707-13.267,17.012-18.976
			c1.026-0.928,2.612-0.848,3.54,0.176c0.929,1.025,0.851,2.611-0.175,3.54c-6.048,5.476-11.537,11.599-16.316,18.199
			C724.579,165.531,723.814,165.892,723.037,165.892z M916.271,165.306c-0.771,0-1.532-0.354-2.023-1.023
			c-4.82-6.57-10.344-12.661-16.426-18.101c-1.03-0.922-1.118-2.507-0.195-3.538c0.922-1.034,2.503-1.121,3.539-0.196
			c6.339,5.67,12.1,12.019,17.125,18.871c0.816,1.115,0.578,2.685-0.54,3.503C917.304,165.148,916.784,165.306,916.271,165.306z
			 M759.849,132.563c-0.862,0-1.704-0.445-2.169-1.246c-0.695-1.195-0.291-2.729,0.906-3.426
			c7.355-4.282,15.178-7.797,23.251-10.443c1.32-0.439,2.73,0.285,3.162,1.601c0.433,1.315-0.285,2.731-1.601,3.162
			c-7.739,2.538-15.239,5.907-22.292,10.013C760.711,132.455,760.276,132.563,759.849,132.563z M879.253,132.2
			c-0.424,0-0.852-0.106-1.246-0.333c-7.075-4.063-14.596-7.385-22.353-9.876c-1.319-0.424-2.043-1.835-1.62-3.153
			c0.426-1.317,1.841-2.042,3.153-1.62c8.091,2.6,15.938,6.064,23.316,10.303c1.2,0.689,1.615,2.221,0.926,3.422
			C880.966,131.749,880.122,132.2,879.253,132.2z M807.018,117.098c-1.264,0-2.351-0.953-2.487-2.238
			c-0.148-1.377,0.848-2.612,2.224-2.759c8.402-0.897,17.071-0.924,25.479-0.078c1.375,0.14,2.38,1.367,2.241,2.744
			c-0.137,1.377-1.352,2.38-2.745,2.243c-8.063-0.813-16.384-0.786-24.44,0.074C807.198,117.094,807.107,117.098,807.018,117.098z"
			/>
	</g>
	<g>
		<path fill="#FFF100" d="M674.711,260.279l-0.034-0.311l-0.312,0.033l-0.977-9.216l-10.087,1.067l-0.937-8.84
			c-0.056-0.541-0.236-1.047-0.539-1.518l-1.177-1.01l-1.573-0.589l-1.833-0.058c-1.369,0.146-2.532,0.457-3.488,0.938
			c-2.275,1.121-3.23,3.384-2.871,6.788c0.396,3.737,1.919,6.031,4.57,6.883c0.869,0.286,1.72,0.386,2.551,0.298l1.661-0.366
			c0.374-0.039,0.914-0.285,1.622-0.737l0.534-0.309l0.93-0.729l1.371,1.052c-0.248,0.444-0.618,0.904-1.114,1.375l-1.749,1.32
			l-1.789,0.945l-1.654,0.426c-2.947,0.313-5.308-0.172-7.08-1.453c-0.864-0.623-1.682-1.607-2.454-2.95
			c-0.23-0.606-0.45-1.287-0.656-2.04c-0.206-0.757-0.346-1.485-0.42-2.19c-0.138-1.288,0.007-2.499,0.433-3.637
			c1.174-3.188,3.232-5.736,6.179-7.643c1.42-0.865,3.085-1.398,4.994-1.601c2.116-0.224,3.895,0.323,5.336,1.639
			c0.185,0.148,0.597,0.671,1.238,1.569c0.313,0.596,0.502,1.185,0.564,1.767l0.652,6.164l6.352-0.672l-1.498-14.134l3.55-0.376
			l2.941,27.771L674.711,260.279z"/>
		<path fill="#FFF100" d="M681.094,281.669l-0.085-0.3l-0.302,0.082l-2.322-8.322l-2.052,1.027l-2.224,0.881
			c-4.019,1.12-8.239,0.585-12.66-1.604c-0.825,0.622-1.658,1.439-2.501,2.453l-2.512,3.105l-2.213,3.479
			c-0.389,0.628-0.921,1.901-1.597,3.825l-2.59-2.528l1.907-2.743l1.823-2.329l2.243-2.704l1.771-2.056l3.459-3.954l1.985-1.983
			l1.518-1.334l1.548-0.757c0.927-0.26,1.524,0.094,1.795,1.058l1.346,4.826l7.96-2.221l-3.062-10.976l3.438-0.959l6.461,23.159
			L681.094,281.669z"/>
		<path fill="#FFF100" d="M682.672,273.885l-0.295,0.106l-0.353-0.604l-0.3,0.643l-0.684-1.884l0.951-1.28l5.141-8.327
			c0.206-0.297,0.325-0.65,0.356-1.062l-0.21-1.323l-2.053-5.65l3.491-3.597l2.437,6.708c0.227,0.63,0.377,1.041,0.447,1.236
			l0.231,1.249l0.03,0.388c0.086,0.235,0.09,0.434,0.016,0.595l-2.039,3.004l-2.521,3.515l-0.819,1.229l-0.861,1.113l-0.879,1.251
			l-0.957,1.214L682.672,273.885z"/>
		<path fill="#FFF100" d="M694.691,309.243l-0.14-0.28l-0.28,0.138l-1.867-3.757l-27.013,13.422l0.921-4.72l9.533-4.739
			l-12.441-7.871l1.563-4.621l11.732,9.482l-0.238-1.733l0.036-5.228l0.212-2.784l-0.87-0.626l-1.123-0.852l-1.095-0.795
			c-0.431-0.396-0.729-0.626-0.898-0.685l-1.123-0.851l-2.413-2.185c-0.149-0.207-0.421-0.237-0.813-0.09l2.071-4.979
			c0.315,0.637,0.604,1.076,0.865,1.318l0.529,0.646l1.174,1.235l1.061,1.01l1.9,1.713l1.343,1.151l0.056-0.447l0.649-2.351
			c0.133-0.485,0.609-1.398,1.436-2.74c0.431-0.727,0.965-1.248,1.6-1.564c0.635-0.315,1.383-0.547,2.241-0.694
			c0.71,0.021,1.41,0.114,2.101,0.284l1.9,1.294c0.597,0.635,1.107,1.384,1.535,2.243c0.446,0.897,0.722,1.878,0.834,2.942
			c0.092,1.679-0.479,3.383-1.708,5.113c-0.56,0.743-1.287,1.338-2.18,1.783c-0.672,0.333-1.295,0.525-1.871,0.58
			c-1.192,0.312-2.578,0.138-4.161-0.521l-0.975-0.563l-0.171,2.182l-0.003,2.798l0.055,1.371l0.167,1.317
			c0.11,0.689,0.138,1.12,0.081,1.287l0.141,0.84l11.661-5.796l-1.811-3.645l2.668-2.652l6.047,12.166L694.691,309.243z
			 M685.378,294.923l0.908-0.661c0.2-0.147,0.346-0.5,0.437-1.056l0.132-1.046l-0.268-1.195c-0.464-0.934-1.097-1.551-1.898-1.854
			l-1.482-0.45l-1.289,0.36c-0.935,0.463-1.637,1.349-2.107,2.654l-0.536,1.455l-0.029,0.644l0.554,0.425l1.549,0.629
			c0.571,0.227,1.317,0.394,2.238,0.495L685.378,294.923z"/>
		<path fill="#FFF100" d="M701.417,317.146l-0.18-0.258l-0.309,0.215l-2.401-3.439l-24.732,17.269l0.098-4.878l22.376-15.625
			l-1.828-2.619l2.928-2.042l2.438,3.49l1.166-1.502c0.428-0.554,0.976-1.699,1.645-3.439c1.328-3.421,1.395-5.987,0.2-7.699
			c-0.334-0.479-0.719-0.847-1.153-1.104c-0.817-0.295-1.767-0.344-2.853-0.147l-1.96,0.911l-1.228,1.085l-0.944,1.273l-0.475,1.398
			c-0.141,0.455-0.184,1.198-0.126,2.227l-1.453-2.192c-0.065-0.311-0.035-0.741,0.093-1.287l0.669-1.995
			c0.282-0.909,0.706-1.777,1.272-2.606c0.568-0.828,1.159-1.458,1.775-1.888c0.719-0.504,1.471-0.848,2.254-1.039
			c0.471-0.125,1.245-0.183,2.323-0.172c0.731,0.102,1.476,0.384,2.232,0.848c0.756,0.463,1.375,1.038,1.854,1.723
			c1.72,2.465,1.631,6.038-0.266,10.724l-2.158,4.639c-0.385,0.828-0.898,1.543-1.543,2.146l2.903,4.158L701.417,317.146z"/>
		<path fill="#FFF100" d="M736.033,350.32l-0.243-0.194l-0.197,0.242l-3.264-2.637l-18.956,23.465l-1.173-4.624l5.196-6.434
			l-0.865-0.135l-0.962-0.214c-0.917-0.202-1.741-0.521-2.474-0.952l-1.925-1.234c-1.016-0.818-1.866-1.772-2.555-2.86
			c-0.538-1.072-0.928-2.268-1.165-3.58c-0.465-2.771,0.293-5.379,2.272-7.828c1.899-2.354,4.669-2.728,8.307-1.121
			c0.501,0.246,0.996,0.513,1.487,0.802c0.49,0.292,0.979,0.631,1.466,1.025c0.812,0.654,1.363,1.101,1.656,1.339
			c0.324,0.263,0.571,0.486,0.741,0.675c0.169,0.189,0.405,0.563,0.707,1.116l-0.693,4.048l-1.858-1.981l-1.411-1.141
			c-0.683-0.551-1.236-0.999-1.657-1.338l-1.453-0.694l1.623,10.199l1.771,0.147l8.949-11.078l-14.466-11.686l2.243-2.776
			l20.944,16.918L736.033,350.32z M716.984,356.264l-0.304,0.079l-1.875-10.933l-0.488,0.007l-1.057,0.111l-1.469,0.425
			l-1.012,0.954c-0.315,0.39-0.598,0.938-0.849,1.647c-0.18,0.822-0.031,1.667,0.446,2.535l0.544,0.923l1.548,1.57l4.663,2.399
			L716.984,356.264z"/>
		<path fill="#FFF100" d="M745.594,355.552l-0.267-0.163l-0.165,0.266l-4.1-2.538l-15.877,25.646l-1.843-4.517l14.366-23.207
			l-3.248-2.009l1.878-3.035l10.967,6.788L745.594,355.552z"/>
		<path fill="#FFF100" d="M768.22,366.208l-0.286-0.13l-0.13,0.287l-3.816-1.743l-12.521,27.443l-2.288-4.188l3.434-7.524
			l-0.871,0.084l-0.985,0.032c-0.939,0.031-1.815-0.07-2.634-0.306l-2.171-0.716c-1.187-0.54-2.249-1.252-3.187-2.136
			c-0.788-0.905-1.461-1.966-2.018-3.178c-1.141-2.566-1.057-5.284,0.251-8.149c1.256-2.751,3.845-3.802,7.77-3.15
			c0.544,0.112,1.092,0.247,1.639,0.406c0.547,0.16,1.104,0.367,1.676,0.63c0.947,0.431,1.594,0.727,1.937,0.883
			c0.378,0.172,0.674,0.331,0.886,0.47c0.211,0.142,0.531,0.444,0.963,0.906l0.335,4.094l-2.294-1.461l-1.651-0.754
			c-0.797-0.362-1.443-0.658-1.937-0.884l-1.579-0.307l4.108,9.473l1.752-0.299l5.911-12.956l-16.918-7.72l1.481-3.245
			l24.495,11.175L768.22,366.208z M751.248,376.706l-0.275,0.148l-4.535-10.122l-0.471,0.129l-0.997,0.372l-1.316,0.775
			l-0.742,1.175c-0.208,0.455-0.346,1.059-0.413,1.807c0.031,0.84,0.385,1.622,1.064,2.346l0.756,0.759l1.889,1.134l5.114,1.167
			L751.248,376.706z"/>
		<path fill="#FFF100" d="M778.813,368.88l-0.298-0.093l-0.093,0.302l-4.604-1.433l-8.948,28.807l-2.914-3.912l8.095-26.064
			l-3.647-1.133l1.06-3.406l12.317,3.825L778.813,368.88z"/>
		<path fill="#FFF100" d="M826.796,373.529l-0.313-0.005l-0.005,0.313l-4.256-0.071l-0.491,30.164l-3.707-2.992l0.205-12.708
			l-9.64-0.156l-0.042,2.505c-0.015,0.961-0.421,1.497-1.216,1.609c-1.169-0.02-2.532-0.86-4.092-2.528
			c-0.205-0.214-0.471-0.564-0.798-1.055c-0.326-0.489-0.591-0.905-0.793-1.245c-0.366-0.595-0.546-1.143-0.537-1.649
			c0.014-0.8,0.438-1.274,1.276-1.43l2.314,0.036l0.177-10.829l-5.634-0.094l0.057-3.568l27.548,0.448L826.796,373.529z
			 M818.598,384.854l-0.313-0.004l0.182-11.143l-9.642-0.157l-0.175,10.83l9.954,0.16L818.598,384.854z"/>
		<path fill="#FFF100" d="M852.646,368.998l-0.31,0.051l0.053,0.311l-9.143,1.527l1.676,10.007l-8.768,1.466
			c-0.538,0.09-1.03,0.3-1.483,0.629l-0.935,1.236l-0.495,1.604l0.054,1.833c0.226,1.359,0.607,2.501,1.144,3.427
			c1.259,2.203,3.576,3.024,6.95,2.458c3.704-0.622,5.903-2.279,6.597-4.975c0.23-0.888,0.279-1.74,0.142-2.566l-0.464-1.635
			c-0.064-0.372-0.342-0.896-0.834-1.574l-0.342-0.517l-0.782-0.884l0.967-1.432c0.459,0.22,0.941,0.563,1.44,1.028l1.423,1.666
			l1.05,1.729l0.529,1.629c0.488,2.922,0.146,5.307-1.029,7.153c-0.567,0.899-1.502,1.773-2.796,2.625
			c-0.591,0.271-1.257,0.528-1.996,0.779c-0.743,0.253-1.463,0.437-2.163,0.554c-1.274,0.212-2.495,0.142-3.651-0.215
			c-3.256-0.98-5.922-2.882-8.003-5.709c-0.95-1.362-1.583-2.994-1.896-4.888c-0.352-2.1,0.084-3.908,1.313-5.427
			c0.137-0.19,0.633-0.633,1.492-1.328c0.574-0.351,1.151-0.573,1.728-0.671l6.115-1.021l-1.053-6.3l-14.02,2.345l-0.59-3.52
			l27.541-4.609L852.646,368.998z"/>
		<path fill="#FFF100" d="M868.195,389.202l0.127,0.617l0.148,0.478c0.089,0.278,0.158,0.497,0.205,0.655l-0.013,0.595l-0.059,1.525
			l-0.24,2.236l-0.455,1.977l-0.651,2.63l-0.338,1.285l-0.559,2.072l-2.68-0.604l0.503-1.535l0.315-0.885l0.574-2.146
			c0.209-0.591,0.318-1.084,0.323-1.48l0.044-1.324l-0.037-1.17l-0.186-0.597l-3.864-2.075l2.389-4.748l4.319,2.274l-0.166,0.313
			L868.195,389.202z"/>
		<path fill="#FFF100" d="M910.551,337.686l-0.257,0.181l0.182,0.255l-11.045,7.805l5.272,7.467l0.747-1.6
			c0.271-0.649,0.617-1.228,1.042-1.733l1.188-1.224c0.882-0.622,1.758-0.959,2.634-1.016c1.82-0.368,3.74,0.194,5.757,1.684
			c0.389,0.338,0.764,0.686,1.119,1.048c0.355,0.361,0.704,0.78,1.042,1.257c1.033,1.468,1.734,2.889,2.097,4.269l0.383,1.954
			c0.497,2.662,0.342,4.716-0.476,6.162l-4.386-0.889c0.478-0.337,0.795-0.792,0.954-1.361l0.109-2.993
			c0-0.509-0.051-1.101-0.143-1.775c-0.094-0.677-0.24-1.405-0.435-2.187c-0.35-1.289-0.81-2.343-1.387-3.16l-0.843-0.863
			c-0.744-0.545-1.355-0.741-1.83-0.584s-1.028,0.408-1.655,0.748c-0.342,0.242-0.745,0.653-1.201,1.231
			c-0.462,0.58-0.845,1.408-1.152,2.494l-0.334,1.153l-0.419,1.362l9.324,13.192l-4.876-0.063l-5.854-8.287l-0.376,0.88l-0.516,0.9
			l-1.362,2.19l-1.288,1.217c-0.683,0.481-1.662,0.866-2.94,1.154c-1.8,0.346-3.786-0.076-5.957-1.265
			c-0.9-0.697-1.629-1.441-2.187-2.229c-0.848-1.199-1.239-2.515-1.178-3.946l0.233-1.515c0.572-1.505,1.281-2.707,2.129-3.607
			c0.259-0.281,0.66-0.617,1.206-1.004l0.821-0.577l1.13-0.565l3.794,2.223l-1.023,0.722l-0.877,0.389l-0.561,0.397
			c-0.854,0.602-1.466,1.111-1.835,1.527c-0.545,0.384-1.04,1.238-1.487,2.56c-0.131,0.25-0.172,0.622-0.129,1.12
			c0.169,0.674,0.43,1.259,0.779,1.753c0.849,1.2,1.826,1.753,2.934,1.657l1.146-0.336l1.228-0.866l1.265-1.354
			c0.372-0.417,0.941-1.38,1.711-2.896l0.242-0.635l0.567-1.472l-7.369-10.434l-12.274,8.674l-2.057-2.915l26.794-18.934
			L910.551,337.686z"/>
		<path fill="#FFF100" d="M922.563,324.588l-0.223,0.223l0.223,0.221l-13.438,13.482l-2.526-2.522l13.66-13.7L922.563,324.588z
			 M932.225,329.269l-0.226,0.226l0.038,0.313l-1.389,0.419c-0.358,0.124-0.821,0.472-1.396,1.044
			c-0.451,0.453-0.735,0.738-0.856,0.86l-0.45,0.991l0.043,0.855l0.674,0.673l4.99,4.977l-4.674,0.731l-3.553-3.542
			c-0.509-0.026-1.152,0.05-1.931,0.229l-1.528,1.086l-0.672,0.678l-0.584,1.121l-0.362,1.164l0.036,1.207
			c-0.003,0.18,0.191,0.609,0.576,1.292l1.288,1.286c0.859,0.855,2.856,1.522,5.992,1.993l3.595,0.402l3.148,0.132l4.567-0.044
			l-0.437,2.394c-0.293,0.297-1.194,0.463-2.697,0.494l-1.813-0.128l-4.292-0.386c-5.951-0.69-9.77-1.872-11.45-3.549
			c-1.8-1.794-2.745-3.412-2.834-4.855c-0.086-0.736,0.038-1.524,0.378-2.366c0.339-0.842,0.848-1.601,1.524-2.281l0.574-0.578
			l1.021-0.486c0.581-0.419,1.179-0.682,1.786-0.783c0.583-0.246,1.204-0.359,1.864-0.352l0.949,0.065l-0.21-0.743
			c-0.164-0.988,0.049-1.952,0.645-2.896l0.932-1.279l0.796-0.798l4.647-0.85L932.225,329.269z"/>
		<path fill="#FFF100" d="M937.97,303.858l-0.186,0.251l0.253,0.186l-2.477,3.387l24.345,17.81l-4.617,1.356l-8.136-5.955
			l0.139,1.189c0.063,0.409,0.01,1.043-0.151,1.904l-0.202,1.019l-0.278,0.806c-0.251,0.335-0.387,0.597-0.415,0.781l-0.505,0.794
			c-0.866,1.18-1.807,2.093-2.827,2.742c-1.02,0.651-2.293,1.091-3.816,1.32c-1.179,0.121-2.623,0.071-4.336-0.146
			c-1.574-0.479-3.02-1.202-4.342-2.169l0.665-0.909l0.813-1.111l0.552-1.616c0.19-1.05-0.136-2.114-0.972-3.191l-1.004-0.891
			l-1.267-0.85c-0.444-0.325-0.726-0.48-0.843-0.463c-0.393-0.18-0.646-0.263-0.764-0.247l-0.911-0.045l-4.363,5.965l-2.88-2.11
			l15.898-21.729L937.97,303.858z M942.957,317.825l-9.651-7.061l-5.18,7.072l0.191,0.063l1.655,0.279l1.961,0.504l1.512,0.796
			c1.414,1.035,2.377,2.334,2.891,3.897c0.216,0.625,0.264,1.333,0.15,2.128l-0.29,1.03l-0.252,0.979l-0.92,1.577l1.557,0.209
			l0.574-0.046c1.745-0.12,3.366-1.209,4.871-3.265c0.345-0.47,0.558-0.831,0.638-1.084l0.438-1.23l0.249-1.296l0.068-1.577
			l-0.198-1.852L942.957,317.825z"/>
		<path fill="#FFF100" d="M942.72,294.084l-0.152,0.271l0.274,0.151l-2.341,4.218l26.379,14.628l-4.424,2.059l-23.866-13.238
			l-1.853,3.341l-3.123-1.729l6.256-11.28L942.72,294.084z"/>
		<path fill="#FFF100" d="M952.563,270.141l-0.112,0.291l0.288,0.116l-1.773,4.481l28.046,11.109l-4.142,2.467l-14.95-5.921
			l-3.249,8.208l5.645,2.237c0.738,0.292,0.969,0.788,0.691,1.487l-0.184,0.464l-0.535,0.327l-3.461,1.053l-2.203,0.61l-1.388,0.259
			l-2.962,0.646l-0.548-0.284c-0.555-0.221-0.891-0.714-1.003-1.476l0.137-0.351l5.742-14.494l-7.044-2.79l-6.941,17.522
			l-3.319-1.314l10.241-25.847L952.563,270.141z"/>
		<path fill="#FFF100" d="M956.964,247.17l-0.064,0.308l0.309,0.063l-0.884,4.294l29.855,6.133l-3.635,3.089l-8.882-1.824
			l0.16,0.288l0.429,1.494l0.166,1.696l-0.342,1.655c-0.098,0.49-0.572,1.14-1.424,1.944c-0.849,0.808-2.118,1.675-3.807,2.605
			l-3.458,1.848c-0.229,0.08-0.548,0.186-0.96,0.313c-0.41,0.129-0.705,0.197-0.876,0.204l-10.769-2.212l-0.541,2.638l-3.499-0.718
			l5.03-24.473L956.964,247.17z M969.422,258.359l-13.854-2.846l-1.99,9.691l12.436,2.554c0.339,0.026,0.778-0.138,1.323-0.496
			l1.556-1.021l1.101-0.99l0.476-1.053c0.151-0.735,0.133-1.572-0.063-2.506l-0.253-1.268c-0.032-0.473-0.184-0.975-0.464-1.5
			L969.422,258.359z"/>
		<path fill="#FFF100" d="M991.948,251.418c2.485,0.302,4.439,1.544,5.856,3.734c1.417,2.189,1.965,4.63,1.638,7.325
			c-0.164,1.367-0.784,2.847-1.86,4.442c-1.009,1.391-2.46,2.96-4.353,4.708c-1.41,1.219-2.687,2.221-3.832,3.008
			c-0.876,0.649-1.664,1.081-2.364,1.291l-2.37-2.81c1.987,0.24,4.494-1.014,7.516-3.761c0.938-0.812,1.741-1.798,2.407-2.956
			c0.666-1.162,1.072-2.342,1.217-3.542c0.13-1.08,0.09-2.009-0.11-2.789c-0.323-1.217-0.695-2.187-1.118-2.91
			c-0.531-0.906-1.181-1.613-1.945-2.128c-0.772-0.514-1.469-0.807-2.101-0.882l-1.724-0.021c-0.437,0.074-0.817,0.238-1.146,0.494
			l-0.813,0.911l-0.171,1.429c-0.118,0.953,0.325,1.994,1.325,3.124l1.062,1.139l1.321,0.537l-2.9,3.119l-1.511-1.066l-0.981-0.748
			c-0.552-0.656-1.05-1.41-1.492-2.263c-0.314-0.88-0.413-1.795-0.299-2.746c0.24-1.989,1.227-3.722,2.962-5.193l2.735-1.246
			C989.895,251.36,990.912,251.293,991.948,251.418z"/>
		<path fill="#FFF100" d="M957.737,224.534l-0.015,0.313l0.313,0.015l-0.39,8.631l2.271-0.335l2.388-0.144
			c4.167,0.188,8.013,2.013,11.529,5.471c0.977-0.332,2.024-0.849,3.14-1.551l3.355-2.167l3.189-2.613
			c0.563-0.477,1.466-1.521,2.709-3.137l1.673,3.209l-2.668,2.011l-2.461,1.645l-2.973,1.87l-2.325,1.399l-4.519,2.681l-2.507,1.264
			l-1.857,0.795l-1.704,0.236c-0.964-0.045-1.421-0.565-1.376-1.566l0.225-5.004l-8.256-0.373l-0.513,11.385l-3.567-0.161
			l1.087-24.019L957.737,224.534z"/>
	</g>
	<g>
		<g>
			<path fill="#FFF100" d="M964.84,179.625l-6.482-3.81c0.848,1.958,1.279,3.867,1.695,5.719c0.846,3.779,1.578,7.043,5.608,9.411
				c0.942,0.552,1.768,0.948,2.369,1.21c-0.293-2.683-1.569-4.212-3.161-6.126c-0.409-0.492-0.832-0.999-1.266-1.561l0.324-0.292
				c2.363,2.243,3.956,4.126,5.264,7.229C969.476,186.605,969.672,182.462,964.84,179.625z"/>
		</g>
		<g>
			<path fill="#FFF100" d="M961.481,196.835c1.175,0,2.241-0.306,3.356-0.964c0.607-0.361,1.098-0.707,1.458-0.983
				c-1.735-0.484-3.752-0.634-6.188-0.451l-0.262,0.001l-0.014-0.211c-0.005-0.202-0.011-0.295,2.363-0.472l0.617-0.05
				c0.624-0.05,1.164-0.095,1.702-0.095c0.354,0,0.687,0.021,1.012,0.063c-1.532-0.952-2.93-1.698-4.479-1.698
				c-0.957,0-1.911,0.289-2.918,0.883l-4.066,2.404c1.313,0.152,2.483,0.495,3.621,0.829
				C958.99,196.474,960.218,196.835,961.481,196.835L961.481,196.835z"/>
		</g>
		<g>
			<path fill="#FFF100" d="M961.065,205.1c0.019-0.032,1.379-2.685,1.518-2.931c0.165-0.29,0.323-0.57,0.475-0.838
				c0.803-1.424,1.463-2.602,2.498-3.698c-3.6,1.258-6.541,2.898-7.322,7.588l-1.234,7.415c1.525-1.493,3.153-2.576,4.731-3.628
				c3.227-2.144,6.01-3.998,6.778-8.611c0.275-1.676,0.154-2.921,0.045-3.532C965.973,198.702,961.065,205.1,961.065,205.1z"/>
		</g>
		<g>
			<path fill="#FFF100" d="M978.881,184.469c-0.435,0.562-0.86,1.068-1.266,1.561c-1.596,1.915-2.866,3.443-3.161,6.126
				c0.602-0.262,1.426-0.658,2.368-1.21c4.032-2.368,4.763-5.632,5.608-9.411c0.417-1.852,0.843-3.761,1.691-5.719l-6.478,3.81
				c-4.831,2.837-4.636,6.98-4.352,11.78c1.308-3.103,2.898-4.985,5.265-7.229L978.881,184.469z"/>
		</g>
		<g>
			<path fill="#FFF100" d="M981.436,191.975c-1.55,0-2.946,0.746-4.476,1.698c0.322-0.042,0.653-0.063,1.008-0.063
				c0.539,0,1.077,0.045,1.703,0.095l0.616,0.05c2.375,0.177,2.371,0.27,2.365,0.472l-0.01,0.21l-0.226,0.001l-0.042-0.001
				c-2.435-0.183-4.45-0.033-6.187,0.451c0.36,0.276,0.85,0.622,1.458,0.983c1.113,0.658,2.182,0.964,3.355,0.964
				c1.264,0,2.492-0.361,3.796-0.744c1.14-0.334,2.31-0.677,3.623-0.829l-4.067-2.404
				C983.347,192.264,982.393,191.975,981.436,191.975z"/>
		</g>
		<g>
			<path fill="#FFF100" d="M976.929,197.633c1.033,1.096,1.694,2.273,2.495,3.696c0.154,0.27,0.31,0.55,0.477,0.84
				c0.143,0.246,1.553,3.134,1.533,3.169c0,0-4.922-6.636-7.504-8.474c-0.108,0.611-0.229,1.857,0.049,3.532
				c0.764,4.613,3.549,6.466,6.772,8.611c1.579,1.052,3.208,2.135,4.733,3.628l-1.234-7.415
				C983.473,200.531,980.528,198.891,976.929,197.633z"/>
		</g>
	</g>
	<g>
		<g>
			<path fill="#FFF100" d="M660.742,180.3l-6.479-3.809c0.849,1.959,1.277,3.867,1.692,5.721c0.847,3.777,1.578,7.041,5.61,9.409
				c0.942,0.551,1.766,0.947,2.368,1.21c-0.295-2.683-1.567-4.213-3.16-6.127c-0.41-0.491-0.833-0.998-1.266-1.56l0.322-0.292
				c2.365,2.243,3.957,4.126,5.263,7.228C665.378,187.281,665.574,183.137,660.742,180.3z"/>
		</g>
		<g>
			<path fill="#FFF100" d="M657.385,197.511c1.175,0,2.24-0.307,3.355-0.965c0.609-0.36,1.099-0.706,1.459-0.982
				c-1.737-0.484-3.752-0.634-6.188-0.451l-0.26,0.001l-0.015-0.211c-0.007-0.203-0.011-0.295,2.361-0.471l0.618-0.05
				c0.625-0.05,1.163-0.097,1.702-0.097c0.355,0,0.687,0.021,1.011,0.063c-1.531-0.952-2.927-1.698-4.478-1.698
				c-0.958,0-1.912,0.289-2.918,0.883l-4.067,2.403c1.313,0.153,2.483,0.496,3.623,0.831
				C654.892,197.149,656.123,197.511,657.385,197.511L657.385,197.511z"/>
		</g>
		<g>
			<path fill="#FFF100" d="M656.971,205.775c0.019-0.032,1.376-2.686,1.517-2.93c0.165-0.292,0.322-0.57,0.475-0.839
				c0.802-1.424,1.464-2.602,2.497-3.699c-3.599,1.259-6.543,2.899-7.322,7.589l-1.233,7.415c1.524-1.492,3.152-2.576,4.73-3.628
				c3.226-2.145,6.01-3.999,6.777-8.612c0.278-1.675,0.153-2.92,0.048-3.531C661.876,199.377,656.971,205.775,656.971,205.775z"/>
		</g>
		<g>
			<path fill="#FFF100" d="M674.784,185.145c-0.435,0.562-0.858,1.068-1.267,1.56c-1.594,1.915-2.865,3.444-3.16,6.127
				c0.603-0.263,1.427-0.659,2.367-1.21c4.033-2.368,4.765-5.632,5.611-9.409c0.415-1.854,0.842-3.762,1.691-5.721l-6.479,3.809
				c-4.832,2.837-4.635,6.981-4.35,11.78c1.305-3.102,2.897-4.984,5.263-7.228L674.784,185.145z"/>
		</g>
		<g>
			<path fill="#FFF100" d="M677.339,192.65c-1.551,0-2.945,0.746-4.478,1.698c0.323-0.042,0.654-0.063,1.01-0.063
				c0.539,0,1.078,0.047,1.703,0.097l0.619,0.05c2.373,0.176,2.369,0.268,2.362,0.471l-0.011,0.211h-0.224l-0.043-0.001
				c-2.435-0.183-4.45-0.033-6.188,0.451c0.36,0.276,0.851,0.622,1.461,0.982c1.111,0.658,2.179,0.965,3.355,0.965
				c1.262,0,2.491-0.361,3.796-0.743c1.137-0.335,2.308-0.678,3.622-0.831l-4.069-2.403
				C679.25,192.939,678.297,192.65,677.339,192.65z"/>
		</g>
		<g>
			<path fill="#FFF100" d="M672.83,198.308c1.036,1.098,1.698,2.274,2.498,3.697c0.153,0.271,0.31,0.549,0.476,0.841
				c0.141,0.244,1.553,3.134,1.531,3.168c0,0-4.921-6.637-7.504-8.474c-0.104,0.611-0.23,1.857,0.049,3.531
				c0.768,4.613,3.552,6.467,6.774,8.612c1.579,1.052,3.209,2.136,4.732,3.628l-1.232-7.415
				C679.375,201.207,676.432,199.566,672.83,198.308z"/>
		</g>
	</g>
</g>
<g>
	<circle fill="#ED1C24" stroke="#ED1C24" stroke-width="5" stroke-miterlimit="10" cx="201.942" cy="200.752" r="195"/>
	<g>
		<defs>
			<path id="SVGID_3_" d="M389.577,201.134c0,103.465-83.876,187.346-187.344,187.346c-103.468,0-187.347-83.881-187.347-187.346
				c0-103.468,83.879-187.345,187.347-187.345C305.701,13.789,389.577,97.666,389.577,201.134z"/>
		</defs>
		<clipPath id="SVGID_4_">
			<use xlink:href="#SVGID_3_"  overflow="visible"/>
		</clipPath>
		
			<rect x="-44.81" y="-5.552" clip-path="url(#SVGID_4_)" fill-rule="evenodd" clip-rule="evenodd" fill="#EC1C24" width="504.407" height="511.371"/>
		<path clip-path="url(#SVGID_4_)" fill-rule="evenodd" clip-rule="evenodd" fill="#FFFAD7" d="M320.108,202.296
			c-1.412-1.969-1.243-3.461-0.297-5.688c2.541-5.975,0.994-8.673-5.566-10.103c-2.525-0.55-3.756-1.25-3.099-4.083
			c1.557-6.701-0.955-11.925-6.357-15.828c-2.111-1.53-2.385-3.58-2.897-5.905c-1.949-8.853-8.95-14.964-12.861-22.779
			c-0.169-0.338-0.688-0.467-1.023-0.707c-14.638-10.667-23.676-24.376-23.434-43.13c0.032-2.516-0.028-5.03-0.087-7.539
			c-0.158-6.646,2.996-9.925,9.756-10.131c3.194-0.101,6.184,0.991,9.207,1.821c4.239,1.167,8.15,3.402,12.611,3.786
			c4.819,0.41,9.084-0.657,10.393-5.906c1.313-5.267,2.022-10.701,1.962-16.169c-0.04-3.734-1.721-5.813-5.794-5.682
			c-7.77,0.251-14.929-2.23-21.588-5.887c-5.332-2.922-10.758-4.302-16.824-4.042c-6.348,0.281-7.193,0.7-7.313,7.164
			c-0.208,10.892,0.283,21.802-0.158,32.683c-0.491,12.036-0.288,24.304-7.837,34.877c-4.825,6.758-8.438,14.51-16.633,18.206
			c-2.593,1.167-4.323,3.333-5.063,6.108c-2.052,7.784-10.498,12.594-10.031,21.601c0.044,0.827-1.317,1.555-2.156,2.182
			c-4.637,3.458-6.535,8.15-5.75,13.768c0.506,3.599-0.283,5.243-4.29,5.776c-5.184,0.695-7.501,4.544-4.949,9.011
			c2.281,4.008,0.442,6.127-1.441,8.906c-3.371,4.961-6.559,10.02-9.507,15.217c-3.343-6.013-6.997-11.872-11.056-17.526
			c-1.408-1.969-1.244-3.461-0.296-5.688c2.544-5.975,0.997-8.673-5.563-10.103c-2.528-0.55-3.756-1.25-3.1-4.083
			c1.555-6.701-0.951-11.925-6.359-15.828c-2.109-1.53-2.381-3.58-2.896-5.905c-1.949-8.853-8.949-14.964-12.857-22.779
			c-0.169-0.338-0.691-0.467-1.029-0.707c-14.636-10.667-23.671-24.376-23.428-43.13c0.029-2.516-0.03-5.03-0.089-7.539
			c-0.154-6.646,2.993-9.925,9.755-10.131c3.198-0.101,6.182,0.991,9.211,1.821c4.232,1.167,8.144,3.402,12.61,3.786
			c4.817,0.41,9.081-0.657,10.39-5.906c1.316-5.267,2.026-10.701,1.963-16.169c-0.043-3.734-1.719-5.813-5.799-5.682
			c-7.77,0.251-14.928-2.23-21.589-5.887c-5.329-2.922-10.749-4.302-16.818-4.042c-6.345,0.281-7.195,0.7-7.315,7.164
			c-0.205,10.892,0.281,21.802-0.159,32.683c-0.487,12.036-0.289,24.304-7.833,34.877c-4.825,6.758-8.443,14.51-16.634,18.206
			c-2.593,1.167-4.33,3.333-5.062,6.108c-2.056,7.784-10.5,12.594-10.032,21.601c0.037,0.827-1.319,1.555-2.158,2.182
			c-4.637,3.458-6.534,8.15-5.748,13.768c0.501,3.599-0.291,5.243-4.293,5.776c-5.181,0.695-7.503,4.544-4.954,9.011
			c2.287,4.008,0.45,6.127-1.438,8.906c-6.835,10.068-12.953,20.537-17.738,31.771c-3.817,8.958-7.479,17.997-11.521,28.137
			c-0.794,1.562-2.957,9.462-2.931,11.036v366.066c60.981,0,121.966,0,182.95,0c47.36,0,94.718,0,142.077,0
			c0,0,25.621-267.86,16.331-308.813c-4.684-38.518-16.331-71.99-16.331-71.99C341.84,240.194,332.975,220.245,320.108,202.296z"/>
		<g clip-path="url(#SVGID_4_)">
			<path fill-rule="evenodd" clip-rule="evenodd" fill="#FFCA07" d="M169.46,228.392l-0.98-57.901l9.487,56.88
				C175.095,227.563,172.25,227.91,169.46,228.392z"/>
			<path fill-rule="evenodd" clip-rule="evenodd" fill="#FFCA07" d="M152.813,233.139l-12.996-56.423l21.106,53.638
				C158.161,231.142,155.452,232.071,152.813,233.139z"/>
			<path fill-rule="evenodd" clip-rule="evenodd" fill="#FFCA07" d="M137.527,241.257l-24.453-52.512l31.798,48.09
				C142.347,238.185,139.889,239.655,137.527,241.257z"/>
			<path fill-rule="evenodd" clip-rule="evenodd" fill="#FFCA07" d="M124.25,252.353l-34.833-46.283l41.11,40.445
				C128.336,248.344,126.242,250.306,124.25,252.353z"/>
			<path fill-rule="evenodd" clip-rule="evenodd" fill="#FFCA07" d="M113.559,265.963l-43.676-38.019l48.609,31.001
				C116.737,261.199,115.085,263.532,113.559,265.963z"/>
			<path fill-rule="evenodd" clip-rule="evenodd" fill="#FFCA07" d="M105.945,281.507l-50.623-28.109l53.982,20.222
				C108.06,276.171,106.932,278.807,105.945,281.507z"/>
			<path fill-rule="evenodd" clip-rule="evenodd" fill="#FFCA07" d="M256.846,271.205l54.772-18.828l-51.138,26.597
				C259.404,276.322,258.192,273.726,256.846,271.205z"/>
			<path fill-rule="evenodd" clip-rule="evenodd" fill="#FFCA07" d="M247.19,256.846l49.672-29.799l-44.518,36.652
				C250.746,261.326,249.031,259.039,247.19,256.846z"/>
			<path fill-rule="evenodd" clip-rule="evenodd" fill="#FFCA07" d="M234.766,244.807l42.386-39.475l-35.924,45.104
				C239.173,248.458,237.027,246.57,234.766,244.807z"/>
			<path fill-rule="evenodd" clip-rule="evenodd" fill="#FFCA07" d="M220.116,235.595l33.236-47.412l-25.746,51.58
				C225.197,238.247,222.694,236.856,220.116,235.595z"/>
			<path fill-rule="evenodd" clip-rule="evenodd" fill="#FFCA07" d="M203.854,229.657l22.664-53.292l-14.462,55.802
				C209.384,231.197,206.647,230.354,203.854,229.657z"/>
			<path fill-rule="evenodd" clip-rule="evenodd" fill="#FFCA07" d="M197.808,170.381l-2.544,57.602
				c-1.383-0.188-2.772-0.356-4.177-0.478c-1.464-0.128-2.913-0.219-4.366-0.281L197.808,170.381z"/>
			<path fill-rule="evenodd" clip-rule="evenodd" fill="#FFCA07" d="M184.454,240.557c33.942,0,62.201,24.367,68.247,56.566
				c-21.805,12.825-41.557,28.771-58.653,47.209c-11.032-11.614-23.766-21.959-38.119-30.659
				c-12.68-7.68-25.921-13.637-39.441-17.951C123.069,264.214,150.998,240.557,184.454,240.557z"/>
			<g>
				<path fill-rule="evenodd" clip-rule="evenodd" fill="#FFCA07" d="M383.765,261.506c34.188,0,66.826,6.641,96.693,18.681v43.039
					c-31.698-11.475-70.951-19.032-120.696-19.032c-88.119,0-165.946,44.06-212.677,111.341
					C187.3,324.808,278.141,261.506,383.765,261.506z"/>
				<path fill-rule="evenodd" clip-rule="evenodd" fill="#FFCA07" d="M-63.553,335.383c58.653-53.831,147.958-65.043,219.482-21.71
					c14.354,8.7,27.087,19.045,38.119,30.659c-2.607,2.801-5.149,5.654-7.625,8.571c-4.296-3.15-8.665-6.293-13.396-8.939
					c-107.07-59.659-187.229-20.463-236.58,22.853V335.383z"/>
			</g>
		</g>
	</g>
	<g>
		<path fill="#FFF100" d="M186.259,90.938l-6.625-3.894c0.866,2.002,1.305,3.954,1.73,5.847c0.866,3.863,1.614,7.2,5.735,9.622
			c0.964,0.563,1.807,0.969,2.422,1.237c-0.301-2.743-1.604-4.307-3.233-6.263c-0.418-0.503-0.851-1.021-1.294-1.595l0.333-0.297
			c2.415,2.292,4.043,4.218,5.38,7.389C190.998,98.076,191.198,93.839,186.259,90.938z"/>
		<path fill="#FFF100" d="M182.826,108.534c1.201,0,2.291-0.313,3.431-0.986c0.623-0.369,1.123-0.722,1.491-1.004
			c-1.774-0.496-3.836-0.648-6.326-0.462l-0.266,0.001l-0.015-0.215c-0.008-0.208-0.012-0.301,2.416-0.483l0.632-0.05
			c0.637-0.052,1.189-0.098,1.74-0.098c0.363,0,0.701,0.021,1.033,0.064c-1.566-0.974-2.994-1.736-4.579-1.736
			c-0.979,0-1.956,0.295-2.983,0.902l-4.159,2.458c1.343,0.156,2.54,0.506,3.703,0.847
			C180.277,108.165,181.536,108.534,182.826,108.534L182.826,108.534z"/>
		<path fill="#FFF100" d="M182.402,116.984c0.019-0.033,1.407-2.745,1.55-2.997c0.17-0.296,0.331-0.583,0.487-0.857
			c0.82-1.456,1.495-2.659,2.553-3.781c-3.681,1.287-6.689,2.964-7.486,7.759l-1.261,7.58c1.559-1.526,3.223-2.634,4.837-3.708
			c3.298-2.194,6.143-4.088,6.929-8.806c0.283-1.713,0.158-2.985,0.048-3.61C187.417,110.443,182.402,116.984,182.402,116.984z"/>
		<path fill="#FFF100" d="M200.614,95.891c-0.445,0.574-0.879,1.092-1.294,1.595c-1.631,1.958-2.93,3.521-3.232,6.263
			c0.615-0.268,1.459-0.673,2.422-1.237c4.124-2.421,4.87-5.758,5.734-9.622c0.427-1.893,0.862-3.845,1.73-5.847l-6.625,3.894
			c-4.938,2.901-4.739,7.137-4.449,12.044c1.336-3.171,2.963-5.098,5.382-7.389L200.614,95.891z"/>
		<path fill="#FFF100" d="M203.227,103.565c-1.584,0-3.012,0.762-4.577,1.736c0.331-0.043,0.668-0.064,1.031-0.064
			c0.55,0,1.1,0.046,1.742,0.098l0.63,0.05c2.428,0.182,2.425,0.275,2.418,0.483l-0.011,0.214l-0.229,0.001l-0.044-0.001
			c-2.489-0.187-4.551-0.034-6.325,0.462c0.368,0.283,0.868,0.636,1.491,1.004c1.138,0.673,2.23,0.986,3.43,0.986
			c1.292,0,2.547-0.369,3.881-0.761c1.164-0.341,2.36-0.691,3.704-0.847l-4.159-2.458
			C205.181,103.861,204.205,103.565,203.227,103.565z"/>
		<path fill="#FFF100" d="M198.617,109.349c1.059,1.122,1.734,2.325,2.553,3.78c0.157,0.275,0.318,0.562,0.488,0.858
			c0.145,0.251,1.586,3.204,1.565,3.24c0,0-5.032-6.785-7.671-8.664c-0.11,0.625-0.236,1.899,0.049,3.61
			c0.781,4.717,3.629,6.611,6.923,8.806c1.615,1.074,3.281,2.182,4.839,3.708l-1.26-7.58
			C205.309,112.313,202.299,110.636,198.617,109.349z"/>
	</g>
	<g>
		<path fill="#FFF100" d="M346.748,167.29l-6.625-3.894c0.865,2.001,1.305,3.954,1.73,5.846c0.866,3.863,1.614,7.2,5.734,9.621
			c0.965,0.564,1.808,0.97,2.423,1.238c-0.3-2.742-1.604-4.306-3.232-6.263c-0.419-0.502-0.852-1.021-1.295-1.595l0.334-0.298
			c2.414,2.292,4.043,4.217,5.379,7.389C351.487,174.428,351.687,170.191,346.748,167.29z"/>
		<path fill="#FFF100" d="M343.314,184.885c1.201,0,2.291-0.313,3.431-0.986c0.623-0.369,1.124-0.722,1.492-1.004
			c-1.774-0.496-3.837-0.648-6.326-0.462l-0.267,0.001l-0.015-0.215c-0.009-0.208-0.012-0.301,2.416-0.483l0.632-0.05
			c0.637-0.051,1.189-0.098,1.739-0.098c0.364,0,0.701,0.021,1.033,0.064c-1.565-0.973-2.993-1.735-4.578-1.735
			c-0.979,0-1.957,0.295-2.983,0.902l-4.157,2.457c1.342,0.157,2.539,0.507,3.702,0.849
			C340.766,184.516,342.025,184.885,343.314,184.885L343.314,184.885z"/>
		<path fill="#FFF100" d="M342.891,193.335c0.02-0.032,1.407-2.745,1.551-2.996c0.17-0.296,0.329-0.583,0.486-0.857
			c0.82-1.455,1.494-2.659,2.554-3.781c-3.682,1.286-6.69,2.964-7.487,7.758l-1.261,7.581c1.56-1.527,3.223-2.634,4.836-3.709
			c3.299-2.193,6.144-4.089,6.929-8.805c0.283-1.713,0.158-2.985,0.048-3.611C347.906,186.794,342.891,193.335,342.891,193.335z"/>
		<path fill="#FFF100" d="M361.103,172.243c-0.445,0.574-0.877,1.092-1.293,1.595c-1.632,1.958-2.93,3.521-3.232,6.263
			c0.615-0.268,1.458-0.673,2.421-1.238c4.124-2.42,4.87-5.757,5.736-9.621c0.425-1.893,0.859-3.845,1.729-5.846l-6.623,3.894
			c-4.939,2.901-4.739,7.138-4.449,12.044c1.336-3.172,2.963-5.097,5.382-7.389L361.103,172.243z"/>
		<path fill="#FFF100" d="M363.716,179.917c-1.584,0-3.014,0.762-4.578,1.735c0.332-0.042,0.669-0.064,1.032-0.064
			c0.55,0,1.101,0.047,1.741,0.098l0.63,0.05c2.428,0.182,2.426,0.275,2.418,0.483l-0.011,0.214l-0.229,0.001l-0.042-0.001
			c-2.489-0.187-4.552-0.034-6.326,0.462c0.368,0.283,0.868,0.635,1.492,1.004c1.137,0.673,2.229,0.986,3.43,0.986
			c1.292,0,2.547-0.369,3.882-0.761c1.162-0.341,2.358-0.692,3.702-0.849l-4.158-2.457
			C365.669,180.213,364.693,179.917,363.716,179.917z"/>
		<path fill="#FFF100" d="M359.105,185.701c1.06,1.121,1.734,2.325,2.553,3.78c0.158,0.275,0.317,0.562,0.488,0.858
			c0.145,0.251,1.586,3.204,1.566,3.24c0,0-5.032-6.785-7.671-8.665c-0.111,0.626-0.236,1.899,0.049,3.611
			c0.781,4.716,3.629,6.61,6.923,8.805c1.614,1.075,3.281,2.182,4.841,3.709l-1.261-7.581
			C365.797,188.665,362.787,186.987,359.105,185.701z"/>
	</g>
	<g>
		<path fill="#FFF100" d="M54.027,106.408l-6.625-3.894c0.867,2.003,1.306,3.954,1.73,5.848c0.866,3.864,1.614,7.199,5.736,9.621
			c0.963,0.563,1.805,0.969,2.421,1.237c-0.302-2.742-1.603-4.306-3.232-6.263c-0.419-0.503-0.851-1.021-1.293-1.595l0.331-0.298
			c2.417,2.292,4.044,4.217,5.379,7.389C58.767,113.545,58.967,109.309,54.027,106.408z"/>
		<path fill="#FFF100" d="M50.594,124.003c1.201,0,2.291-0.313,3.431-0.986c0.623-0.368,1.123-0.722,1.491-1.004
			c-1.775-0.496-3.836-0.648-6.326-0.461l-0.266,0.001l-0.015-0.216c-0.007-0.207-0.011-0.301,2.415-0.481l0.632-0.049
			c0.638-0.053,1.188-0.1,1.741-0.1c0.362,0,0.702,0.022,1.033,0.064c-1.566-0.973-2.993-1.735-4.578-1.735
			c-0.979,0-1.956,0.295-2.984,0.902l-4.159,2.458c1.344,0.156,2.54,0.506,3.705,0.849
			C48.046,123.634,49.304,124.003,50.594,124.003L50.594,124.003z"/>
		<path fill="#FFF100" d="M50.172,132.454c0.018-0.033,1.406-2.746,1.55-2.996c0.169-0.298,0.329-0.583,0.486-0.857
			c0.82-1.457,1.496-2.66,2.553-3.782c-3.679,1.287-6.689,2.963-7.486,7.758l-1.261,7.581c1.559-1.525,3.223-2.633,4.837-3.708
			c3.297-2.193,6.143-4.088,6.929-8.806c0.284-1.712,0.156-2.985,0.049-3.61C55.186,125.912,50.172,132.454,50.172,132.454z"/>
		<path fill="#FFF100" d="M68.382,111.361c-0.444,0.574-0.876,1.092-1.294,1.595c-1.629,1.958-2.929,3.521-3.23,6.263
			c0.616-0.268,1.459-0.673,2.421-1.237c4.123-2.421,4.871-5.757,5.736-9.621c0.424-1.894,0.861-3.844,1.729-5.848l-6.625,3.894
			c-4.939,2.901-4.738,7.138-4.447,12.044c1.334-3.171,2.962-5.097,5.38-7.389L68.382,111.361z"/>
		<path fill="#FFF100" d="M70.996,119.035c-1.585,0-3.012,0.762-4.579,1.735c0.331-0.042,0.669-0.064,1.034-0.064
			c0.551,0,1.101,0.047,1.74,0.1l0.633,0.049c2.426,0.181,2.422,0.274,2.415,0.481l-0.01,0.216H72l-0.043-0.001
			c-2.49-0.187-4.55-0.034-6.325,0.461c0.367,0.282,0.869,0.637,1.492,1.004c1.137,0.673,2.228,0.986,3.431,0.986
			c1.29,0,2.547-0.369,3.881-0.76c1.163-0.342,2.359-0.692,3.704-0.849l-4.16-2.458C72.949,119.33,71.975,119.035,70.996,119.035z"
			/>
		<path fill="#FFF100" d="M66.386,124.819c1.059,1.122,1.735,2.324,2.554,3.78c0.156,0.276,0.316,0.562,0.486,0.859
			c0.145,0.25,1.587,3.204,1.566,3.239c0,0-5.031-6.785-7.672-8.664c-0.106,0.625-0.235,1.899,0.05,3.61
			c0.784,4.717,3.631,6.611,6.927,8.806c1.613,1.075,3.28,2.183,4.837,3.708l-1.26-7.581
			C73.077,127.782,70.068,126.105,66.386,124.819z"/>
	</g>
	<g>
		<g>
			<path fill="#9F1D20" d="M206.827,268.845c8.521-4.605,10.705-7.422,8.607-9.078c-2.096-1.655-4.05-4.231-6.302-2.073
				c-2.255,2.16-9.163,8.952-17.35,5.563c-8.182-3.393-10.731-10.071-11.233-10.862c-0.504-0.795-2.462-1.076-2.944,0.115
				c0,0,4.018,7.494,8.359,11.636C190.305,268.288,198.309,273.446,206.827,268.845z"/>
			<path fill="#9F1D20" d="M193.686,258.017c2.106,1.133,2.361,1.268,3.5,1.794c1.14,0.528,1.965,0.565,2.862-1.114
				c0.895-1.681,1.438-2.877,1.64-3.462c0.201-0.584,0.918-1.616-1.795-3.013c-2.312-1.197-4.354-2.918-5.552-0.846
				c-0.65,1.119-1.753,3.332-2.035,3.925C192.021,255.896,191.581,256.882,193.686,258.017z"/>
			<path fill="#9F1D20" d="M217.556,269.363c-18.006,1.664-15.772,26.048-21.667,34.525c-5.891,8.479-7.223,5.88-8.36,4.184
				c-1.136-1.691-4.896-6.676-6.665-8.613c-1.763-1.929-2.88-2.236-1.055-3.868c1.823-1.636,8.439-6.589,8.104-16.99
				c-0.329-10.396-5.792-17.262-18.933-20.146c-13.136-2.89-19.32,1.758-18.59,4.38c0,0,1.107,6.562,1.532,8.406
				c0.433,1.849,0.748,2.578,1.493,2.785c0.743,0.205,0.97-0.342,1.836-1.718c0.867-1.371,6.477-8.254,17.083-7.961
				c10.602,0.287,15.442,9.125,9.535,17.082c-5.906,7.957-12.499,7.581-15.105,7.282c-2.601-0.299-5.226-2.003-6.358-0.882
				c-1.133,1.121-0.272,4.449,0.313,7.849c0.587,3.398,0.61,5.206,4.675,4.473c4.066-0.735,7.467-1.321,8.539-1.432
				c1.076-0.11,3.651-0.085,6.32,8.368c2.665,8.452,0.577,17.59-8.375,19.302c-8.954,1.714-18.892-3.107-24.471-13.717
				c-5.58-10.615-4.572-19.683-7.073-17.416c-2.507,2.268,1.409,15.094,3.822,21.039c2.413,5.95,7.907,18.098,18.345,21.099
				c10.437,3,20.245-1.011,24.145-6.911c3.902-5.91,3.825-12.253,3.374-15.104c-0.451-2.848-0.957-2.498,0.708-3.107
				c1.669-0.608,2.873-0.946,4.222-1.481c1.355-0.541,4.224-1.877,4.902-0.74c0.677,1.141,0.931,9.583,3.965,13.296
				c3.029,3.716,12.082,10.515,20.587,4.424c8.514-6.09,11.36-20.048,11.449-28.66C235.942,290.495,235.559,267.699,217.556,269.363
				z M225.998,314.138c-4.506,9.468-10.664,8.202-14.204,6.589c-3.543-1.609-9.056-11.073-9.767-12.196
				c-1.624-2.564,2.573-11.919,5.483-20.896c2.902-8.983,11.833-15.676,17.835-6.115
				C231.339,291.082,230.505,304.674,225.998,314.138z"/>
		</g>
		<g>
			<path fill="#EC1C24" d="M204.948,266.026c8.521-4.605,10.705-7.422,8.606-9.077c-2.097-1.656-4.049-4.231-6.302-2.075
				c-2.254,2.159-9.163,8.953-17.349,5.561c-8.183-3.389-10.731-10.066-11.233-10.86c-0.504-0.793-2.462-1.074-2.944,0.117
				c0,0,4.018,7.493,8.359,11.634C188.425,265.471,196.429,270.629,204.948,266.026z"/>
			<path fill="#EC1C24" d="M191.805,255.197c2.108,1.135,2.362,1.268,3.5,1.794c1.142,0.528,1.964,0.563,2.863-1.114
				c0.895-1.682,1.435-2.88,1.639-3.462c0.201-0.583,0.918-1.616-1.796-3.015c-2.313-1.196-4.355-2.916-5.551-0.844
				c-0.649,1.12-1.754,3.332-2.034,3.924C190.142,253.073,189.702,254.063,191.805,255.197z"/>
			<path fill="#EC1C24" d="M215.676,266.545c-18.005,1.665-15.771,26.049-21.666,34.525c-5.893,8.479-7.223,5.881-8.36,4.184
				c-1.137-1.69-4.898-6.68-6.666-8.612c-1.762-1.932-2.88-2.239-1.054-3.872c1.823-1.632,8.438-6.586,8.104-16.986
				c-0.328-10.398-5.792-17.263-18.932-20.149c-13.136-2.889-19.32,1.759-18.59,4.38c0,0,1.105,6.563,1.533,8.408
				c0.433,1.847,0.748,2.576,1.492,2.785c0.745,0.203,0.968-0.342,1.837-1.716c0.865-1.373,6.477-8.257,17.082-7.966
				c10.602,0.29,15.441,9.126,9.536,17.083c-5.907,7.957-12.5,7.584-15.106,7.284c-2.602-0.3-5.226-2.002-6.359-0.882
				c-1.132,1.122-0.273,4.447,0.314,7.849c0.585,3.398,0.61,5.204,4.675,4.468c4.065-0.732,7.467-1.315,8.538-1.429
				c1.077-0.107,3.651-0.087,6.321,8.365c2.665,8.455,0.577,17.591-8.376,19.308c-8.953,1.711-18.891-3.11-24.472-13.723
				c-5.579-10.611-4.57-19.68-7.072-17.411c-2.506,2.263,1.41,15.092,3.823,21.04c2.411,5.945,7.906,18.096,18.344,21.094
				c10.438,3.002,20.244-1.009,24.146-6.909c3.903-5.907,3.824-12.254,3.375-15.102c-0.452-2.847-0.958-2.497,0.706-3.107
				c1.669-0.61,2.873-0.945,4.223-1.486c1.355-0.537,4.224-1.873,4.901-0.738c0.677,1.142,0.931,9.586,3.964,13.3
				c3.03,3.713,12.082,10.513,20.589,4.422c8.512-6.091,11.359-20.048,11.448-28.661
				C234.061,287.674,233.682,264.878,215.676,266.545z M224.118,311.32c-4.506,9.466-10.665,8.199-14.203,6.586
				c-3.543-1.607-9.056-11.072-9.767-12.195c-1.625-2.565,2.572-11.918,5.48-20.896c2.906-8.981,11.835-15.677,17.837-6.113
				C229.458,288.265,228.627,301.856,224.118,311.32z"/>
		</g>
	</g>
	<g>
		
			<circle fill="none" stroke="#FFF100" stroke-width="4" stroke-linecap="round" stroke-linejoin="round" stroke-dasharray="10.0742,10.0742" cx="201.942" cy="200.752" r="192.394"/>
	</g>
</g>
</svg>
